<svg class="icon" viewBox="0 0 1024 1024" xmlns="http://www.w3.org/2000/svg" width="200" height="200"><defs><style/></defs><path d="M509.792 944.484c-116.035 0-225.124-45.187-307.173-127.236S75.383 626.112 75.383 510.077c0-116.034 45.187-225.125 127.235-307.173 82.049-82.048 191.138-127.235 307.173-127.235s225.124 45.187 307.172 127.235c82.051 82.049 127.235 191.139 127.235 307.173 0 116.036-45.185 225.123-127.235 307.171-82.048 82.05-191.137 127.236-307.171 127.236zm0-825.845c-215.84 0-391.438 175.598-391.438 391.438 0 215.837 175.598 391.438 391.438 391.438 215.838 0 391.437-175.601 391.437-391.438 0-215.841-175.599-391.438-391.437-391.438z"/><path d="M509.792 956.57c-119.263 0-231.388-46.443-315.719-130.774-84.332-84.334-130.775-196.458-130.775-315.719 0-119.263 46.443-231.387 130.775-315.719 84.332-84.332 196.456-130.775 315.719-130.775 119.262 0 231.387 46.443 315.719 130.775 84.331 84.331 130.774 196.455 130.774 315.719s-46.443 231.388-130.774 315.719S629.055 956.57 509.792 956.57zm0-868.817c-112.806 0-218.861 43.93-298.626 123.697-79.768 79.765-123.697 185.82-123.697 298.627 0 112.807 43.929 218.86 123.696 298.626C290.93 888.468 396.985 932.4 509.792 932.4s218.861-43.933 298.626-123.697 123.696-185.819 123.696-298.626-43.93-218.863-123.696-298.627c-79.767-79.767-185.82-123.697-298.626-123.697zm0 825.847c-222.503 0-403.523-181.021-403.523-403.523 0-222.504 181.02-403.523 403.523-403.523s403.523 181.02 403.523 403.523C913.314 732.578 732.295 913.6 509.792 913.6zm0-782.875c-209.175 0-379.352 170.177-379.352 379.352 0 209.176 170.177 379.352 379.352 379.352 209.175 0 379.352-170.176 379.352-379.352S718.967 130.725 509.792 130.725z"/><path d="M535.948 738.069c-38.179 0-73.625-16.927-97.542-45.952-22.289 17.768-49.696 27.403-78.646 27.403-29.062 0-57.446-10.102-79.924-28.443-19.309-15.758-33.582-36.976-40.924-60.577h-5.698v-.854c-31.503-5.105-55.632-32.498-55.632-65.419 0-29.012 18.623-53.959 45.111-62.823-.398-3.78-.599-7.57-.599-11.352 0-59.54 48.017-108.077 107.359-108.919 19.19-58.401 73.642-98.306 136.025-98.306 41.955 0 80.896 17.878 108.153 49.351a143.328 143.328 0 0 1 29.079-2.985c63.425 0 119.302 42.272 137.234 102.113a97.807 97.807 0 0 1 4.646-.112c54.947 0 99.651 44.705 99.651 99.654a99.729 99.729 0 0 1-5.173 31.771c-10.969 35.139-41.097 61.066-76.864 67.202-9.179 40.18-44.917 69.294-87.165 69.294-13.914 0-27.424-3.184-39.703-9.285-23.905 30.422-60.188 48.239-99.388 48.239zm-93.212-87.302l9.065 14.229c18.454 28.959 49.911 46.247 84.146 46.247 34.33 0 65.826-17.351 84.253-46.412l7.512-11.85 11.499 8.035c10.552 7.374 22.941 11.272 35.828 11.272 32.159 0 58.929-24.084 62.266-56.021l1.188-11.341 11.386-.655c29.34-1.685 54.905-21.683 63.617-49.759l.1-.311a72.938 72.938 0 0 0 3.82-23.354c0-40.157-32.669-72.827-72.825-72.827-4.09 0-8.297.367-12.502 1.091l-12.773 2.198-2.635-12.689c-11.146-53.656-59.078-92.601-113.971-92.601-10.333 0-20.635 1.38-30.622 4.102l-8.693 2.369-5.48-7.151c-22.252-29.034-55.942-45.685-92.437-45.685-53.709 0-100.182 36.385-113.014 88.481l-2.745 11.142-11.432-.986c-2.673-.23-5.05-.343-7.266-.343-45.27 0-82.1 36.832-82.1 82.104 0 6.215.723 12.479 2.147 18.617l3.415 14.711-15.012 1.654c-19.989 2.201-35.062 19.05-35.062 39.191 0 21.75 17.697 39.446 39.45 39.446.688 0 1.391-.016 2.08-.052l14.102-.726.006.777 2.295 10.568c9.87 45.459 50.841 78.453 97.419 78.453 26.967 0 52.238-10.613 71.158-29.887l11.817-12.037z"/></svg>