<svg class="icon" viewBox="0 0 1256 1024" xmlns="http://www.w3.org/2000/svg" width="245.313" height="200"><defs><style/></defs><path d="M233.64 439.5c-19.92 0-36.06 16.16-36.06 36.08v163.96c0 19.92 16.14 36.08 36.06 36.08h8.02c19.92 0 36.06-16.14 36.06-36.08V475.58c0-19.92-16.14-36.08-36.06-36.08h-8.02z"/><path d="M241.66 680.06h-8.02c-22.34 0-40.52-18.18-40.52-40.54V475.58c0-22.34 18.18-40.54 40.52-40.54h8.02c22.34 0 40.52 18.18 40.52 40.54v163.96c0 22.34-18.18 40.52-40.52 40.52zm-8.02-236.1c-17.42 0-31.6 14.18-31.6 31.62v163.96c0 17.44 14.18 31.62 31.6 31.62h8.02c17.42 0 31.6-14.18 31.6-31.62V475.58c0-17.44-14.18-31.62-31.6-31.62h-8.02zM377.2 378.3c-19.92 0-36.08 16.14-36.08 36.06v225.18c0 19.92 16.16 36.08 36.08 36.08h8.02c19.92 0 36.08-16.14 36.08-36.08V414.36c0-19.92-16.14-36.06-36.08-36.06h-8.02z"/><path d="M385.2 680.06h-8.02c-22.34 0-40.54-18.18-40.54-40.54V414.36c0-22.34 18.18-40.52 40.54-40.52h8.02c22.34 0 40.54 18.18 40.54 40.52v225.18c0 22.34-18.18 40.52-40.54 40.52zm-8-297.3c-17.44 0-31.62 14.18-31.62 31.6v225.18c0 17.44 14.18 31.62 31.62 31.62h8.02c17.44 0 31.62-14.18 31.62-31.62V414.36c0-17.42-14.18-31.6-31.62-31.6h-8.02zm140.64-67.14c-19.92 0-36.08 16.16-36.08 36.08v287.84c0 19.92 16.14 36.08 36.08 36.08h8.02c19.92 0 36.08-16.14 36.08-36.08V351.7c0-19.92-16.14-36.08-36.08-36.08h-8.02z"/><path d="M525.84 680.06h-8.02c-22.34 0-40.54-18.18-40.54-40.54V351.7c0-22.34 18.18-40.54 40.54-40.54h8.02c22.34 0 40.54 18.18 40.54 40.54v287.84c0 22.34-18.18 40.52-40.54 40.52zm-8-359.98c-17.44 0-31.62 14.18-31.62 31.62v287.84c0 17.44 14.18 31.62 31.62 31.62h8.02c17.44 0 31.62-14.18 31.62-31.62V351.7c0-17.44-14.18-31.62-31.62-31.62h-8.02z"/><path d="M672.04 728.52H135.62c-8.04 0-14.58-6.52-14.58-14.58V130.98c0-8.04 6.52-14.58 14.58-14.58h937.12c8.04 0 14.58 6.52 14.58 14.58v131.14c43.04 13.02 82.5 34.26 116.6 61.88V62.76c0-32.2-26.1-58.3-58.3-58.3H62.76c-32.2 0-58.3 26.1-58.3 58.3v720.68c0 32.2 26.1 58.3 58.3 58.3h689c-33.7-31.72-60.98-70.18-79.72-113.22z"/><path d="M763 846.2H62.76C28.16 846.2 0 818.04 0 783.44V62.76C0 28.16 28.16 0 62.76 0h1082.86c34.6 0 62.76 28.16 62.76 62.76v270.6l-7.26-5.9c-34.3-27.8-73.02-48.34-115.08-61.08l-3.16-.96V130.98c0-5.58-4.54-10.12-10.12-10.12H135.62c-5.58 0-10.12 4.54-10.12 10.12v582.96c0 5.58 4.54 10.12 10.12 10.12h539.34l1.16 2.68c18.44 42.36 44.92 79.96 78.68 111.76l8.2 7.7zM62.76 8.92c-29.68 0-53.84 24.14-53.84 53.84v720.68c0 29.68 24.16 53.84 53.84 53.84h678c-30.2-30.26-54.26-65.28-71.62-104.3H135.62c-10.5 0-19.04-8.54-19.04-19.04V130.98c0-10.5 8.54-19.04 19.04-19.04h937.12c10.5 0 19.04 8.54 19.04 19.04v127.84c39.02 12.22 75.18 31.02 107.68 55.98V62.76c0-29.68-24.16-53.84-53.84-53.84H62.76z"/><path d="M987.34 333.66c-143.6 0-260.42 116.82-260.42 260.42S843.74 854.5 987.34 854.5s260.42-116.82 260.42-260.42-116.82-260.42-260.42-260.42zm150.98 218.88c-4.28 0-8.54-.44-12.72-1.3l-62.46 104.34c14.16 10.06 22.8 26.56 22.8 44.08 0 29.78-24.22 54.02-54.02 54.02-29.78 0-54.02-24.22-54.02-54.02 0-8.08 1.82-16.04 5.28-23.3l-91.16-67.74a49.666 49.666 0 0 1-27.98 3.8l-24.4 41.06c6.14 7.72 9.48 17.26 9.48 27.2 0 24.16-19.66 43.8-43.82 43.8s-43.82-19.66-43.82-43.8c0-24.16 19.66-43.82 43.82-43.82 2.14 0 4.3.16 6.42.48l23.74-39.98c-8.62-9.16-13.5-21.38-13.5-34.02 0-27.38 22.26-49.64 49.64-49.64s49.64 22.26 49.64 49.64c0 7.94-1.9 15.72-5.5 22.72l89.6 66.54a53.894 53.894 0 0 1 26.16-7l65.18-108.88c-14.22-12.3-21.14-27.72-21.14-46.98 0-34.6 28.16-62.76 62.76-62.76s62.76 28.16 62.76 62.76-28.14 62.8-62.74 62.8z"/><path d="M805.32 724.52c24.16 0 43.82-19.66 43.82-43.8 0-9.94-3.34-19.48-9.48-27.2l24.4-41.06c9.52 1.48 19.3.1 27.98-3.8l91.18 67.72a54.109 54.109 0 0 0-5.28 23.3c0 29.78 24.24 54.02 54.02 54.02 29.78 0 54.02-24.22 54.02-54.02 0-17.5-8.64-34-22.8-44.08l62.46-104.34c4.18.86 8.44 1.3 12.72 1.3 34.6 0 62.76-28.16 62.76-62.76s-28.2-62.78-62.8-62.78-62.76 28.16-62.76 62.76c0 19.26 6.92 34.68 21.14 46.98l-65.18 108.88c-9.22.08-18.2 2.48-26.16 7l-89.6-66.54c3.6-7 5.5-14.78 5.5-22.72 0-27.38-22.26-49.64-49.64-49.64s-49.64 22.26-49.64 49.64c0 12.64 4.88 24.84 13.5 34.02l-23.74 39.98c-2.14-.32-4.28-.48-6.42-.48-24.16 0-43.82 19.66-43.82 43.82s19.66 43.8 43.82 43.8zm10.78-77.12l30.62-51.54-2.68-2.44a40.81 40.81 0 0 1-13.2-30.02c0-22.46 18.26-40.72 40.72-40.72s40.72 18.26 40.72 40.72c0 7.64-2.14 15.1-6.18 21.58l-2.18 3.5 100.96 74.98 2.6-1.68a44.977 44.977 0 0 1 26.32-7.16l2.64.1 71.86-120.04-3.1-2.42c-14.16-11.06-20.76-24.54-20.76-42.46 0-29.68 24.14-53.84 53.84-53.84 29.68 0 53.84 24.16 53.84 53.84s-24.12 53.82-53.8 53.82c-4.64 0-9.26-.6-13.74-1.78l-3.24-.86-70.36 117.54 3.86 2.28c13.68 8.08 22.18 22.98 22.18 38.84 0 24.86-20.22 45.1-45.1 45.1-24.86 0-45.1-20.22-45.1-45.1 0-7.84 2.06-15.58 5.96-22.38l1.96-3.44-101.84-75.64-2.48 1.3a40.293 40.293 0 0 1-18.82 4.62c-2.96 0-5.94-.32-8.86-.98l-3.16-.7-30.98 52.14 2.26 2.44c6 6.46 9.3 14.88 9.3 23.7 0 19.24-15.66 34.88-34.9 34.88s-34.88-15.66-34.88-34.88c0-19.24 15.66-34.88 34.88-34.88 2.58 0 5.16.3 7.68.86l3.16.72z"/><path d="M1177.8 403.62c-50.88-50.88-118.52-78.88-190.46-78.88s-139.58 28.02-190.46 78.88C746.02 454.5 718 522.14 718 594.08s28.02 139.58 78.88 190.46 118.52 78.88 190.46 78.88 139.58-28.02 190.46-78.88 78.88-118.5 78.88-190.46c0-71.94-28.02-139.58-78.88-190.46zm-190.46-69.96c143.6 0 260.42 116.82 260.42 260.42S1130.94 854.5 987.34 854.5 726.92 737.68 726.92 594.08s116.82-260.42 260.42-260.42zm-6.84-4.38c.52-.02 1.02-.02 1.54-.02-.5 0-1.02.02-1.54.02zM924.08 901.48H281.36c-32.2 0-58.3 26.1-58.3 58.3v1.46c0 32.2 26.1 58.3 58.3 58.3h642.72c32.2 0 58.3-26.1 58.3-58.3v-1.46c0-32.2-26.1-58.3-58.3-58.3z"/><path d="M924.08 1024H281.36c-34.6 0-62.76-28.16-62.76-62.76v-1.46c0-34.6 28.16-62.76 62.76-62.76h642.72c34.6 0 62.76 28.16 62.76 62.76v1.46c0 34.62-28.16 62.76-62.76 62.76zM281.36 905.96c-29.68 0-53.84 24.16-53.84 53.84v1.46c0 29.68 24.14 53.84 53.84 53.84h642.72c29.68 0 53.84-24.16 53.84-53.84v-1.46c0-29.68-24.14-53.84-53.84-53.84H281.36z"/></svg>