<svg class="icon" viewBox="0 0 1025 1024" xmlns="http://www.w3.org/2000/svg" width="200.195" height="200"><defs><style/></defs><path d="M433.067 147.2c-12.8-4.267-19.2-14.933-17.067-27.733L435.2 44.8c4.267-12.8 14.933-19.2 27.733-17.067 12.8 4.267 19.2 14.934 17.067 27.734l-19.2 74.666c-2.133 12.8-14.933 19.2-27.733 17.067zM12.8 290.133c4.267-12.8 14.933-19.2 27.733-17.066l74.667 19.2C128 296.533 134.4 307.2 132.267 320c-4.267 12.8-17.067 21.333-27.734 17.067l-74.666-19.2c-12.8-2.134-21.334-14.934-17.067-27.734zM578.133 243.2c-6.4-10.667-2.133-25.6 8.534-32l66.133-38.4c10.667-6.4 25.6-2.133 32 8.533 6.4 10.667 2.133 25.6-8.533 32l-66.134 38.4c-12.8 6.4-25.6 2.134-32-8.533zm-531.2 309.333c-6.4-10.666-2.133-25.6 8.534-32l66.133-38.4c10.667-6.4 25.6-2.133 32 8.534 6.4 10.666 2.133 25.6-8.533 32l-66.134 38.4c-10.666 6.4-25.6 2.133-32-8.534zM179.2 46.933c10.667-6.4 25.6-2.133 32 8.534l38.4 66.133c6.4 10.667 2.133 25.6-8.533 32-10.667 6.4-25.6 2.133-32-8.533l-38.4-66.134c-6.4-12.8-2.134-25.6 8.533-32zm247.467 134.4c-115.2-32-234.667 38.4-264.534 153.6-29.866 108.8 32 221.867 136.534 258.134v-6.4c0-19.2 8.533-38.4 21.333-53.334-14.933-4.266-27.733-12.8-38.4-19.2V512c0-29.867 81.067-83.2 108.8-115.2 23.467-25.6 91.733-55.467 119.467-66.133 4.266 10.666 8.533 19.2 10.666 29.866 8.534-4.266 17.067-6.4 27.734-6.4 12.8 0 25.6 4.267 38.4 12.8-10.667-87.466-72.534-164.266-160-185.6z"/><path d="M778.667 953.6h-492.8c-113.067 0-204.8-91.733-204.8-204.8 0-106.667 83.2-196.267 187.733-204.8 23.467-128 134.4-224 266.667-224 98.133 0 189.866 55.467 236.8 140.8H800c104.533 8.533 192 83.2 217.6 183.467 4.267 17.066 14.933 59.733 2.133 113.066-21.333 91.734-104.533 166.4-217.6 194.134l-6.4 2.133m-6.4-61.867h2.134C878.933 868.267 942.933 812.8 960 742.4c8.533-38.4 0-70.4-2.133-83.2-19.2-76.8-85.334-132.267-166.4-138.667-12.8-2.133-23.467 0-36.267 0l-21.333 2.134-8.534-19.2c-34.133-76.8-108.8-125.867-192-125.867-108.8 0-202.666 85.333-211.2 196.267L320 601.6l-32-2.133h-4.267c-81.066 0-145.066 66.133-145.066 147.2 0 78.933 66.133 145.066 147.2 145.066h486.4"/></svg>