<svg class="icon" viewBox="0 0 1024 1024" xmlns="http://www.w3.org/2000/svg" width="200" height="200"><defs><style/></defs><path d="M848.945 858.697h-743.62c-11.215 0-20.48-9.265-20.48-20.48s9.265-20.48 20.48-20.48h743.62c11.215 0 20.48 9.265 20.48 20.48-.488 11.215-9.265 20.48-20.48 20.48zm0-165.303H187.733c-11.215 0-20.48-9.264-20.48-20.48 0-11.215 9.265-20.48 20.48-20.48h660.724c11.215 0 20.48 9.265 20.48 20.48 0 11.216-8.777 20.48-19.992 20.48zm-78.507-165.303H187.733c-11.215 0-20.48-9.264-20.48-20.48s9.265-20.48 20.48-20.48h582.705c11.215 0 20.48 9.265 20.48 20.48s-9.265 20.48-20.48 20.48z"/><path d="M770.438 528.091c-11.215 0-20.48-9.264-20.48-20.48s9.265-20.48 20.48-20.48c77.532 0 140.922-62.902 140.922-140.921s-63.39-140.435-140.922-140.435c-77.531 0-140.922 62.903-140.922 140.922 0 11.215-9.265 20.48-20.48 20.48s-20.48-9.265-20.48-20.48c0-100.45 81.433-181.394 181.394-181.394s181.395 81.432 181.395 181.394S870.4 528.091 770.438 528.091zm-648.533-247.71h-16.58c-11.215 0-20.48-9.265-20.48-20.48s9.265-20.48 20.48-20.48h16.58c11.215 0 20.48 9.265 20.48 20.48-.488 11.215-9.265 20.48-20.48 20.48zm164.815 0h-16.579c-11.215 0-20.48-9.265-20.48-20.48s9.265-20.48 20.48-20.48h16.579c11.215 0 20.48 9.265 20.48 20.48s-9.265 20.48-20.48 20.48zm165.303 0h-16.58c-11.214 0-20.48-9.265-20.48-20.48s9.266-20.48 20.48-20.48h16.58c11.215 0 20.48 9.265 20.48 20.48s-9.265 20.48-20.48 20.48zM121.905 404.236h-16.58c-11.215 0-20.48-9.265-20.48-20.48s9.265-20.48 20.48-20.48h16.58c11.215 0 20.48 9.265 20.48 20.48-.488 11.215-9.265 20.48-20.48 20.48zm164.815 0h-16.579c-11.215 0-20.48-9.265-20.48-20.48s9.265-20.48 20.48-20.48h16.579c11.215 0 20.48 9.265 20.48 20.48s-9.265 20.48-20.48 20.48zm165.303 0h-16.58c-11.214 0-20.48-9.265-20.48-20.48s9.266-20.48 20.48-20.48h16.58c11.215 0 20.48 9.265 20.48 20.48s-9.265 20.48-20.48 20.48zm462.75 206.75h-16.579c-11.215 0-20.48-9.264-20.48-20.48 0-11.215 9.265-20.48 20.48-20.48h16.58c11.215 0 20.48 9.265 20.48 20.48 0 11.216-9.265 20.48-20.48 20.48zm-165.303 0h-16.579c-11.215 0-20.48-9.264-20.48-20.48 0-11.215 9.265-20.48 20.48-20.48h16.58c11.215 0 20.48 9.265 20.48 20.48 0 11.216-9.265 20.48-20.48 20.48zM286.72 776.29h-16.579c-11.215 0-20.48-9.265-20.48-20.48 0-11.216 9.265-20.48 20.48-20.48h16.579c11.215 0 20.48 9.264 20.48 20.48 0 11.215-9.265 20.48-20.48 20.48zm-164.815 0h-16.58c-11.215 0-20.48-9.265-20.48-20.48 0-11.216 9.265-20.48 20.48-20.48h16.58c11.215 0 20.48 9.264 20.48 20.48-.488 11.215-9.265 20.48-20.48 20.48zm57.539-82.896c-57.052 0-102.888-46.324-102.888-102.887s46.324-102.888 102.888-102.888c11.215 0 20.48 9.265 20.48 20.48s-9.265 20.48-20.48 20.48a62.224 62.224 0 0 0-62.415 62.415c0 34.134 27.794 62.416 62.415 62.416 11.215 0 20.48 9.264 20.48 20.48 0 10.24-9.265 19.504-20.48 19.504zm669.5 165.303c-11.214 0-20.48-9.265-20.48-20.48s9.266-20.48 20.48-20.48c34.134.975 63.391-25.844 64.366-59.977.976-34.133-25.843-63.39-59.977-64.366h-3.9c-11.216 0-20.48-9.264-20.48-20.48 0-11.215 9.264-20.48 20.48-20.48 57.05-1.463 104.35 43.398 105.813 100.45 1.463 57.051-43.398 104.35-100.45 105.813h-5.851z"/></svg>