<svg class="icon" viewBox="0 0 1303 1024" xmlns="http://www.w3.org/2000/svg" width="254.492" height="200"><defs><style/></defs><path d="M297.8709999999999 307.19a307.19 307.19 0 1 0 614.378 0 307.19 307.19 0 1 0-614.378 0z"/><path d="M460.013 1023.957a242.028 242.028 0 1 1 47.393-480.365 353.866 353.866 0 0 1 669.526 25.739 242.072 242.072 0 0 1-101.477 454.235l.674.412z"/><path d="M0 437.51a288.575 288.575 0 1 0 577.15 0 288.575 288.575 0 1 0-577.15 0z"/><path d="M530.582 949.5a158.275 158.275 0 0 1-65.161-302.541 139.704 139.704 0 0 1 198.501-46.308 232.797 232.797 0 0 1 422.241 41.399 158.297 158.297 0 0 1-30.408 305.842l3.367 1.586z"/><path d="M1005.516 358.557s-55.56-42.68-77.15-64.291-45.417-98.458-45.417-98.458l-53.997 155.538s18.354 52.933 53.997 64.814 122.567-57.603 122.567-57.603z"/></svg>