<svg class="icon" viewBox="0 0 1228 1024" xmlns="http://www.w3.org/2000/svg" width="239.844" height="200"><defs><style/></defs><path d="M970.826 221.221a259.09 259.09 0 0 0-54.514 5.81C859.117 94.691 725.681 6.404 581.297 6.404c-180.168 0-329.989 126.845-359.834 303.01h-1.247c-117.816 0-213.7 95.81-213.7 213.551 0 117.779 95.865 213.55 213.681 213.55h750.61c142.076 0 257.695-115.581 257.695-257.656 0-142.057-115.619-257.639-257.694-257.639zM1176.67 478.86c0 113.626-92.327 206.028-205.861 206.028H220.216c-89.237 0-161.848-72.61-161.848-161.903 0-89.312 72.61-161.978 161.848-161.978 5.958 0 12.455.484 20.461 1.452l26.345 3.277 2.625-26.29a312.264 312.264 0 0 1 311.668-281.45c132.022 0 250.527 83.8 294.875 208.523l8.378 23.552 23.906-7.577a207.165 207.165 0 0 1 62.352-9.645c113.534 0 205.862 92.421 205.862 206.01zM223.828 878.61l65.48 118.356c15.192 27.462 57.605 2.942 42.394-24.538L266.24 854.053c-15.192-27.443-57.605-2.941-42.394 24.576zm243.284 0l65.48 118.356c15.192 27.462 57.623 2.942 42.412-24.538l-65.499-118.375c-15.174-27.443-57.623-2.941-42.393 24.576zm255.702 0l65.498 118.356c15.174 27.462 57.624 2.942 42.413-24.538l-65.48-118.375c-15.193-27.443-57.624-2.941-42.431 24.576zm247.137 0c21.82 39.471 43.679 78.904 65.5 118.356 15.173 27.462 57.622 2.942 42.411-24.538l-65.498-118.375c-15.193-27.443-57.624-2.941-42.413 24.576z"/></svg>