<svg class="icon" viewBox="0 0 1024 1024" xmlns="http://www.w3.org/2000/svg" width="200" height="200"><defs><style/></defs><path d="M935.339 591.862c-3.881-14.477-18.766-23.065-33.236-19.186l-157.581 42.236L566.273 512l178.249-102.912 157.58 42.236c2.353.63 4.716.932 7.042.932 11.98-.001 22.945-7.997 26.194-20.118 3.88-14.476-4.71-29.356-19.186-33.236l-105.167-28.186 110.361-63.717c12.98-7.493 17.426-24.09 9.933-37.069-7.493-12.979-24.089-17.426-37.069-9.932l-110.36 63.716 28.173-105.172c3.878-14.476-4.715-29.355-19.191-33.234-14.476-3.878-29.356 4.715-33.234 19.19l-42.214 157.59-178.248 102.911V271.79l109.486-109.485c10.597-10.597 10.597-27.78 0-38.376-10.597-10.598-27.779-10.598-38.376 0l-71.11 71.11V76.8c0-14.987-12.149-27.136-27.136-27.136S484.864 61.813 484.864 76.8v118.237l-71.11-71.11c-10.597-10.597-27.779-10.597-38.376 0-10.597 10.598-10.597 27.779 0 38.377L484.864 271.79v193.208L306.631 362.096 264.4 204.498c-3.879-14.476-18.759-23.067-33.234-19.188-14.476 3.88-23.067 18.759-19.188 33.235L240.16 323.72l-110.369-63.722c-12.98-7.494-29.575-3.047-37.069 9.932-7.493 12.98-3.046 29.576 9.933 37.07l110.369 63.72-105.175 28.182c-14.477 3.88-23.067 18.759-19.189 33.235 3.25 12.124 14.212 20.12 26.195 20.12 2.324 0 4.689-.301 7.04-.932l157.599-42.228L457.729 512 279.495 614.904l-157.6-42.228c-14.474-3.879-29.355 4.713-33.235 19.188-3.879 14.476 4.712 29.356 19.189 33.235l105.175 28.181-110.368 63.722c-12.98 7.493-17.426 24.09-9.933 37.069 5.027 8.706 14.147 13.572 23.527 13.572 4.602 0 9.269-1.174 13.542-3.64l110.37-63.723-28.182 105.175c-3.879 14.476 4.713 29.356 19.188 33.235a27.2 27.2 0 0 0 7.04.93c11.98 0 22.946-7.996 26.195-20.118l42.229-157.598 178.232-102.902v193.224L375.38 861.695c-10.598 10.597-10.6 27.778-.003 38.376 10.597 10.599 27.779 10.6 38.376.003l71.112-71.1V947.2c0 14.987 12.149 27.136 27.136 27.136s27.136-12.149 27.136-27.136V828.972l71.112 71.101a27.049 27.049 0 0 0 19.186 7.947c6.945 0 13.891-2.65 19.19-7.95 10.597-10.598 10.595-27.779-.003-38.376L539.136 752.226V559.001l178.249 102.912L759.599 819.5c3.248 12.125 14.212 20.122 26.195 20.122 2.324 0 4.688-.301 7.039-.931 14.476-3.878 23.068-18.757 19.19-33.234L783.85 700.286l110.361 63.716a27.006 27.006 0 0 0 13.542 3.64c9.378 0 18.5-4.866 23.527-13.571 7.494-12.98 3.046-29.576-9.933-37.07l-110.36-63.716 105.166-28.187c14.476-3.88 23.065-18.76 19.186-33.236z"/></svg>