<svg class="icon" viewBox="0 0 1170 1024" xmlns="http://www.w3.org/2000/svg" width="228.516" height="200"><defs><style/></defs><path d="M846.737 997.6V616.944a261.668 261.668 0 1 0-522.604 0v380.654h-74.668V616.945a336.41 336.41 0 1 1 671.94 0v380.654h-74.668zM585.435 0a37.298 37.298 0 0 1 37.298 37.298v108.967a37.298 37.298 0 1 1-74.595 0V37.298A37.298 37.298 0 0 1 585.435 0zm-292.53 83.517a37.663 37.663 0 0 1 51.193 13.457l49.803 84.76a36.566 36.566 0 0 1-13.675 50.169 37.663 37.663 0 0 1-51.193-13.456l-49.438-84.761a36.566 36.566 0 0 1 13.676-50.169zM79.214 308.18a32.69 32.69 0 0 1 47.536-14.627l80.445 52.51a42.344 42.344 0 0 1 12.725 53.825 32.69 32.69 0 0 1-47.536 14.626l-80.445-52.509a42.344 42.344 0 0 1-12.433-53.825zM.01 590.983a38.395 38.395 0 0 1 37.298-39.345h99.899a39.418 39.418 0 0 1 0 78.763H37.673a38.395 38.395 0 0 1-37.37-39.418zM877.6 83.517a37.663 37.663 0 0 0-51.193 13.457l-49.584 84.76a36.566 36.566 0 0 0 13.676 50.169 37.663 37.663 0 0 0 51.192-13.456l49.803-84.761A36.566 36.566 0 0 0 877.6 83.517zm213.692 224.663a32.69 32.69 0 0 0-47.536-14.627l-80.446 52.51a42.344 42.344 0 0 0-12.725 53.825 32.69 32.69 0 0 0 47.536 14.626l80.446-52.509a42.344 42.344 0 0 0 12.725-53.825zm79.203 282.803a38.395 38.395 0 0 0-37.298-39.345h-99.387a39.418 39.418 0 0 0 0 78.763h99.533a38.395 38.395 0 0 0 37.152-39.418zM89.67 945.236h991.456a39.345 39.345 0 0 1 0 78.69H89.67a39.345 39.345 0 0 1 0-78.69zM593.553 324.27a292.53 292.53 0 0 1 292.53 292.53v364.565h-585.06V616.652a292.53 292.53 0 0 1 292.53-292.456zm15.138 90.757L464.328 677.28h149.044l-51.193 212.084L706.543 627.11H557.499z"/></svg>