<svg class="icon" viewBox="0 0 1024 1024" xmlns="http://www.w3.org/2000/svg" width="200" height="200"><defs><style/></defs><path d="M468.224 318.496a42.08 42.08 0 0 0 84.16 0 42.08 42.08 0 0 0-84.16 0zm108.928-4.64l260.64-210.56L733.312 0l-204.64 254.048a66.912 66.912 0 0 1 48.48 59.808zm-80.288-61.312L292.832 0 189.504 104.544l254.432 204.928a67.232 67.232 0 0 1 52.512-56.832l.448-.064zm-52.736 76.768L186.176 537.088l103.328 104.544L497.248 384.48a67.232 67.232 0 0 1-53.056-54.784l-.064-.384zm78.72 55.232L729.952 641.6l104.576-103.328L576.48 329.856a67.392 67.392 0 0 1-53.216 54.624l-.416.064zM357.76 612.352l-34.272 313.696h374.176l-35.296-313.696L528.64 433.888l-18.336-7.2-13.472 8.992zm-67.296 373.216h437.472V1024H290.464z"/></svg>